HIERARCHY
ROOT Hips
{
	OFFSET 0.000000 0.000000 0.000000 
	CHANNELS 6 Xposition Yposition Zposition Zrotation Yrotation Xrotation
	JOINT LeftUpLeg
	{
		OFFSET 1.363060 -1.794630 0.839290 
		CHANNELS 3 Zrotation Yrotation Xrotation
		JOINT LeftLeg
		{
			OFFSET 2.448110 -6.726130 0.000000 
			CHANNELS 3 Zrotation Yrotation Xrotation
			JOINT LeftFoot
			{
				OFFSET 2.562200 -7.039590 0.000000 
				CHANNELS 3 Zrotation Yrotation Xrotation
				JOINT LeftToeBase
				{
					OFFSET 0.157640 -0.433110 2.322550 
					CHANNELS 3 Zrotation Yrotation Xrotation
					End Site
					{
						OFFSET 0.000000 0.000000 0.000000 
					}
				}
			}
		}
	}
	JOINT RightUpLeg
	{
		OFFSET -1.305520 -1.794630 0.839290 
		CHANNELS 3 Zrotation Yrotation Xrotation
		JOINT RightLeg
		{
			OFFSET -2.542530 -6.985550 0.000000 
			CHANNELS 3 Zrotation Yrotation Xrotation
			JOINT RightFoot
			{
				OFFSET -2.568260 -7.056230 0.000000 
				CHANNELS 3 Zrotation Yrotation Xrotation
				JOINT RightToeBase
				{
					OFFSET -0.164730 -0.452590 2.363150 
					CHANNELS 3 Zrotation Yrotation Xrotation
					End Site
					{
						OFFSET 0.000000 0.000000 0.000000 
					}
				}
			}
		}
	}
	JOINT Spine
	{
		OFFSET 0.028270 2.035590 -0.193380 
		CHANNELS 3 Zrotation Yrotation Xrotation
		JOINT Spine1
		{
			OFFSET 0.056720 2.048850 -0.042750 
			CHANNELS 3 Zrotation Yrotation Xrotation
			JOINT Neck1
			{
				OFFSET -0.054170 1.746240 0.172020 
				CHANNELS 3 Zrotation Yrotation Xrotation
				JOINT Head
				{
					OFFSET 0.104070 1.761360 -0.123970 
					CHANNELS 3 Zrotation Yrotation Xrotation
					End Site
					{
						OFFSET 0.000000 0.000000 0.000000 
					}
				}
			}
			JOINT LeftArm
			{
				OFFSET 3.362410 1.200890 -0.311210 
				CHANNELS 3 Zrotation Yrotation Xrotation
				JOINT LeftForeArm
				{
					OFFSET 4.983000 -0.000000 -0.000000 
					CHANNELS 3 Zrotation Yrotation Xrotation
					JOINT LeftHand
					{
						OFFSET 3.483560 -0.000000 -0.000000 
						CHANNELS 3 Zrotation Yrotation Xrotation
						JOINT LeftHandIndex1
						{
							OFFSET 0.715260 -0.000000 -0.000000 
							CHANNELS 3 Zrotation Yrotation Xrotation
							End Site
							{
								OFFSET 0.000000 0.000000 0.000000 
							}
						}
					}
				}
			}
			JOINT RightArm
			{
				OFFSET -3.136600 1.374050 -0.404650 
				CHANNELS 3 Zrotation Yrotation Xrotation
				JOINT RightForeArm
				{
					OFFSET -5.241900 -0.000000 -0.000000 
					CHANNELS 3 Zrotation Yrotation Xrotation
					JOINT RightHand
					{
						OFFSET -3.444170 -0.000000 -0.000000 
						CHANNELS 3 Zrotation Yrotation Xrotation
						JOINT RightHandIndex1
						{
							OFFSET -0.622530 -0.000000 -0.000000 
							CHANNELS 3 Zrotation Yrotation Xrotation
							End Site
							{
								OFFSET 0.000000 0.000000 0.000000 
							}
						}
					}
				}
			}
		}
	}
}
MOTION
Frames: 18
Frame Time: 0.041667
-12.885337 11.237546 -24.482926 -79.480693 -72.467828 77.926667 0.109407 32.147800 -46.775067 32.510160 16.336237 125.937863 2.078480 -29.257299 3.159260 0.709400 -5.383100 -15.004500 18.973274 -8.480314 -77.180472 -23.918290 -19.116748 100.884633 -1.714530 7.594365 -2.416507 -0.408900 4.105200 -11.372800 3.213506 -6.558892 -0.569324 4.215470 -4.511834 -5.464655 15.058515 -17.658614 5.923342 4.967400 -7.970700 9.565900 -51.807560 -10.835140 12.655626 14.480096 -24.532152 -7.954721 -3.406604 0.630038 30.617842 -7.125000 0.000000 0.000000 15.569128 13.775466 13.373915 -56.323629 48.188123 -45.029476 2.280081 2.786648 2.586138 7.125000 0.000000 0.000000 
-12.906142 11.469048 -24.595864 -80.926491 -73.160490 79.465333 -1.074334 30.221162 -46.510935 31.859331 16.506918 124.229299 2.496412 -27.372796 2.323442 0.757700 -5.559200 -15.510700 19.410460 -8.331589 -76.228443 -23.408590 -19.239664 99.278433 -1.705250 7.446192 -2.185720 -0.335100 3.720000 -10.290200 3.167858 -6.457150 -0.594719 4.269460 -4.449956 -5.510368 15.176916 -17.816095 5.718588 4.978500 -8.045400 9.489500 -52.301078 -10.824791 13.592429 15.081127 -25.098763 -8.272715 -3.395393 0.521509 29.706499 -7.125000 0.000000 0.000000 17.085496 12.896833 13.539836 -56.811237 48.488943 -45.662334 2.271720 2.808319 2.425092 7.125000 0.000000 0.000000 
-12.923019 11.705751 -24.703707 -82.744657 -73.851294 81.421094 -2.205342 28.392388 -46.161888 31.202780 16.719586 122.438014 2.849190 -25.469645 1.544381 0.795300 -5.692400 -15.894500 19.858336 -8.208136 -75.264484 -22.846724 -19.359853 97.524808 -1.700866 7.348968 -1.841328 -0.258700 3.272200 -9.037600 3.113716 -6.346616 -0.618474 4.309260 -4.380887 -5.552667 15.278874 -17.936103 5.522811 4.996400 -8.104300 9.414400 -52.792377 -10.835855 14.342081 15.629842 -25.596045 -8.564216 -3.390777 0.419550 28.800440 -7.125000 0.000000 0.000000 18.714429 12.047877 13.736326 -57.270566 48.790715 -46.209776 2.266113 2.806305 2.360095 7.125000 0.000000 0.000000 
-12.936393 11.947548 -24.805712 -85.024737 -74.520272 83.895699 -3.299127 26.672604 -45.749471 30.538472 16.966841 120.555588 3.136067 -23.533556 0.777423 0.825900 -5.798300 -16.200200 20.324228 -8.098741 -74.304375 -22.232662 -19.472745 95.631349 -1.702380 7.310541 -1.364952 -0.184700 2.767800 -7.632900 3.052953 -6.220913 -0.641907 4.326415 -4.300938 -5.590871 15.355208 -18.013867 5.326871 5.015500 -8.145700 9.335000 -53.284697 -10.828005 14.972587 16.141398 -26.051609 -8.839269 -3.389667 0.322432 27.943909 -7.125000 0.000000 0.000000 20.443790 11.245425 13.962309 -57.670116 49.076880 -46.632434 2.265781 2.778329 2.405167 7.125000 0.000000 0.000000 
-12.947007 12.194759 -24.901986 -87.815539 -75.136922 86.937363 -4.339795 25.097594 -45.285804 29.864916 17.243047 118.570986 3.353032 -21.587560 0.004719 0.852000 -5.886700 -16.456100 20.816401 -8.003938 -73.348257 -21.566417 -19.573070 93.605953 -1.712245 7.348096 -0.727049 -0.115500 2.191000 -6.033800 2.988476 -6.085709 -0.665664 4.318181 -4.213701 -5.623129 15.393822 -18.040921 5.129262 5.026700 -8.164900 9.246900 -53.785810 -10.776025 15.477946 16.615166 -26.471405 -9.099908 -3.387378 0.235392 27.209111 -7.125000 0.000000 0.000000 22.276687 10.506587 14.239493 -58.006381 49.342445 -46.914519 2.274826 2.724023 2.518852 7.125000 0.000000 0.000000 
-12.954862 12.447384 -24.992209 -91.139854 -75.688487 90.567862 -5.347467 23.647134 -44.782284 29.173179 17.539059 116.475923 3.496245 -19.614350 -0.769046 0.879000 -5.976800 -16.717200 21.316178 -7.922207 -72.400270 -20.850138 -19.655262 91.461154 -1.734615 7.482942 0.100639 -0.055900 1.525900 -4.197000 2.921107 -5.948922 -0.692029 4.284414 -4.122139 -5.655282 15.389970 -18.010651 4.928983 5.026200 -8.158600 9.147800 -54.283833 -10.649692 15.905019 17.060449 -26.872409 -9.352092 -3.377251 0.151210 26.557516 -7.125000 0.000000 0.000000 24.192751 9.844854 14.574847 -58.263231 49.577681 -47.039535 2.291542 2.647117 2.663852 7.125000 0.000000 0.000000 
-12.960488 12.705103 -25.077443 -94.943352 -76.131723 94.712389 -6.285674 22.319671 -44.227420 28.461788 17.846905 114.272489 3.562652 -17.619282 -1.551837 0.907400 -6.070100 -16.987900 21.851840 -7.879162 -71.448355 -20.084647 -19.713160 89.207062 -1.769492 7.706669 1.122200 -0.015700 0.809200 -2.224000 2.854932 -5.818414 -0.719134 4.226295 -4.032574 -5.685236 15.352758 -17.932680 4.725066 5.015900 -8.130700 9.040400 -54.789515 -10.463678 16.205250 17.462176 -27.237819 -9.586690 -3.361288 0.077443 26.049805 -7.125000 0.000000 0.000000 26.177109 9.270316 14.967460 -58.437441 49.780175 -47.008763 2.313628 2.552536 2.773731 7.125000 0.000000 0.000000 
-12.964097 12.967599 -25.157689 -99.171260 -76.467081 99.314935 -7.179945 21.104931 -43.635290 27.722132 18.157910 111.957572 3.546581 -15.588415 -2.324380 0.933700 -6.155100 -17.235200 22.399191 -7.876369 -70.497966 -19.273357 -19.741457 86.858422 -1.817623 8.016471 2.349242 -0.000100 0.055300 -0.152100 2.789376 -5.702990 -0.747720 4.147766 -3.948929 -5.713495 15.286353 -17.806123 4.517227 4.997100 -8.080000 8.925400 -55.276776 -10.194657 16.464167 17.838450 -27.592298 -9.814023 -3.338665 0.001720 25.577454 -7.125000 0.000000 0.000000 28.216648 8.788320 15.418731 -58.539070 49.952625 -46.840767 2.339122 2.449529 2.806724 7.125000 0.000000 0.000000 
-12.966007 13.234023 -25.233900 -103.701396 -76.680441 104.244745 -8.029540 19.992072 -43.012209 26.950107 18.463334 109.536455 3.441806 -13.505323 -3.081506 0.958700 -6.234700 -17.467000 22.965911 -7.938674 -69.559541 -18.419848 -19.735090 84.429888 -1.879671 8.408143 3.788459 -0.010400 -0.659300 1.811900 2.725868 -5.609459 -0.778041 4.051017 -3.875054 -5.740749 15.195793 -17.636914 4.311526 4.970500 -8.008700 8.807800 -55.734047 -9.837255 16.724600 18.194193 -27.943509 -10.036512 -3.315686 -0.079596 25.116395 -7.125000 0.000000 0.000000 30.288411 8.401110 15.933516 -58.555263 50.090529 -46.530877 2.367891 2.342023 2.742981 7.125000 0.000000 0.000000 
-12.966326 13.503737 -25.306610 -108.418838 -76.758525 109.389646 -8.827237 18.981245 -42.372057 26.143922 18.754297 107.019364 3.241590 -11.366700 -3.794620 0.975900 -6.288900 -17.625000 23.560499 -8.066504 -68.638047 -17.525812 -19.690380 81.931572 -1.954259 8.863067 5.438803 -0.040500 -1.299000 3.572000 2.667310 -5.533800 -0.808929 3.946681 -3.811144 -5.762414 15.088046 -17.433076 4.112841 4.939600 -7.919800 8.694400 -56.167741 -9.400427 17.015466 18.539307 -28.299977 -10.258596 -3.295778 -0.169884 24.630626 -7.125000 0.000000 0.000000 32.379075 8.109269 16.484332 -58.469296 50.189417 -46.077671 2.394881 2.227950 2.614785 7.125000 0.000000 0.000000 
-12.965158 13.776210 -25.376559 -113.149781 -76.699640 114.608554 -9.582461 18.063012 -41.729306 25.302380 19.028047 104.414548 2.937135 -9.154977 -4.436035 0.980300 -6.302500 -17.664700 24.177973 -8.273290 -67.746451 -16.593948 -19.609623 79.373566 -2.040617 9.366231 7.298718 -0.078900 -1.812400 4.987500 2.584610 -5.482121 -0.724037 3.941888 -3.745884 -5.875215 14.988198 -17.194887 3.934795 4.900200 -7.811800 8.586600 -56.540355 -8.860937 17.320154 18.862796 -28.654293 -10.477715 -3.280277 -0.265607 24.145689 -7.125000 0.000000 0.000000 34.481029 7.893568 17.093684 -58.284521 50.257156 -45.483732 2.420534 2.110964 2.466207 7.125000 0.000000 0.000000 
-12.962398 14.050594 -25.444279 -117.826462 -76.522478 119.752816 -10.297437 17.218919 -41.091521 24.424524 19.265741 101.735448 2.519857 -6.859167 -4.967748 0.967700 -6.262900 -17.549200 24.808561 -8.552656 -66.878005 -15.627907 -19.479228 76.767570 -2.142074 9.923660 9.373289 -0.117400 -2.209100 6.083800 2.538176 -5.439400 -0.760741 3.825533 -3.702764 -5.886308 14.855484 -16.945525 3.766966 4.856200 -7.697500 8.490400 -56.946707 -8.325470 17.614382 19.159304 -28.985239 -10.677613 -3.264930 -0.354924 23.716002 -7.125000 0.000000 0.000000 36.578140 7.771262 17.691758 -57.945959 50.266661 -44.728496 2.447546 1.986496 2.375672 7.125000 0.000000 0.000000 
-12.958153 14.326359 -25.509877 -122.287563 -76.232868 124.699879 -10.971478 16.432226 -40.474634 23.517847 19.465977 99.002571 1.985055 -4.479395 -5.344380 0.936800 -6.165000 -17.263800 25.445549 -8.920298 -66.050268 -14.629846 -19.302660 74.124997 -2.263620 10.558154 11.689738 -0.149300 -2.489600 6.860800 2.498923 -5.410102 -0.798369 3.717000 -3.668753 -5.893116 14.713502 -16.681192 3.623429 4.804000 -7.573600 8.406600 -57.357283 -7.766190 17.886362 19.426356 -29.294092 -10.860720 -3.251271 -0.440598 23.339770 -7.125000 0.000000 0.000000 38.659145 7.723308 18.294882 -57.438663 50.221088 -43.796017 2.474682 1.851111 2.390105 7.125000 0.000000 0.000000 
-12.952208 14.602760 -25.573988 -126.442348 -75.844713 129.350090 -11.597533 15.688146 -39.888805 22.594172 19.623259 96.241645 1.330364 -2.013046 -5.518932 0.889800 -6.012700 -16.821400 26.074788 -9.376979 -65.263342 -13.602068 -19.078960 71.457928 -2.410888 11.298293 14.276158 -0.173700 -2.685000 7.402900 2.466829 -5.390387 -0.837949 3.617990 -3.641956 -5.905936 14.565200 -16.406236 3.504611 4.744300 -7.442800 8.334900 -57.776890 -7.195589 18.132027 19.662612 -29.576910 -11.024067 -3.236555 -0.523001 23.002449 -7.125000 0.000000 0.000000 40.709829 7.737523 18.883676 -56.728879 50.110219 -42.666981 2.502761 1.703835 2.586583 7.125000 0.000000 0.000000 
-12.944566 14.878736 -25.637038 -130.276731 -75.389559 133.680138 -12.186279 14.962820 -39.346477 21.671696 19.734493 93.490867 0.556518 0.545446 -5.451480 0.828500 -5.807000 -16.225500 26.658172 -9.917647 -64.516845 -12.550445 -18.807412 68.785250 -2.586315 12.162348 17.145465 -0.190300 -2.809500 7.748700 2.443032 -5.382985 -0.879650 3.549438 -3.624130 -5.927896 14.414406 -16.120737 3.414209 4.680700 -7.304800 8.282400 -58.226795 -6.630739 18.325580 19.865096 -29.827717 -11.164530 -3.222533 -0.597207 22.706630 -7.125000 0.000000 0.000000 42.704178 7.810223 19.466362 -55.804470 49.929901 -41.337553 2.535937 1.546118 2.940291 7.125000 0.000000 0.000000 
-12.934907 15.153651 -25.698921 -133.813400 -74.876875 137.704150 -12.730934 14.249777 -38.862347 20.774570 19.798866 90.790718 -0.322321 3.176682 -5.107823 0.756900 -5.556300 -15.502200 27.155587 -10.510556 -63.796215 -11.484449 -18.490207 66.129460 -2.785204 13.129404 20.294439 -0.200400 -2.882300 7.951300 2.427133 -5.384961 -0.923060 3.515452 -3.613684 -5.961148 14.261285 -15.824551 3.350499 4.611400 -7.159000 8.250500 -58.701368 -6.085402 18.468246 20.037539 -30.046996 -11.282976 -3.203350 -0.665132 22.424934 -7.125000 0.000000 0.000000 44.622038 7.943867 20.039771 -54.643738 49.670112 -39.798530 2.576670 1.380001 3.431784 7.125000 0.000000 0.000000 
-12.923337 15.425700 -25.759954 -137.052797 -74.324817 141.405940 -13.224013 13.527174 -38.442509 19.932267 19.820050 88.194647 -1.285599 5.865458 -4.475857 0.673200 -5.246500 -14.612900 27.535814 -11.139198 -63.087867 -10.427577 -18.132485 63.529292 -2.995304 14.106727 23.592722 -0.188500 -2.796500 7.712700 2.419031 -5.399369 -0.967253 3.522094 -3.612440 -6.010471 14.111287 -15.515684 3.305710 4.540300 -7.004800 8.238300 -59.194642 -5.562993 18.583975 20.193672 -30.246442 -11.388272 -3.181918 -0.732755 22.119359 -7.125000 0.000000 0.000000 46.437499 8.131644 20.611925 -53.262364 49.330932 -38.079063 2.624567 1.210569 3.993294 7.125000 0.000000 0.000000 
-12.909538 15.692123 -25.819926 -140.022011 -73.733175 144.812223 -13.654894 12.782494 -38.110992 19.177504 19.804472 85.767620 -2.292010 8.556596 -3.579362 0.570800 -4.838500 -13.448400 27.780698 -11.758542 -62.390544 -9.418664 -17.747270 61.043856 -3.200720 14.951805 26.796631 -0.138300 -2.397200 6.604600 2.418000 -5.416432 -1.011266 3.565297 -3.615478 -6.074394 13.970792 -15.202280 3.270123 4.471600 -6.846100 8.246700 -59.701738 -5.076918 18.698158 20.343966 -30.433341 -11.485656 -3.156294 -0.797505 21.780729 -7.125000 0.000000 0.000000 48.124250 8.368202 21.174955 -51.668376 48.905919 -36.204198 2.679946 1.043862 4.565584 7.125000 0.000000 0.000000 
